<svg xmlns="http://www.w3.org/2000/svg" viewBox="0 0 859 1463" font-family="Arial, Helvetica, sans-serif">
<rect x="0" y="0" width="859" height="1463" fill="#ffffff"/>
<text x="12" y="34" font-size="14.5" font-weight="bold" fill="#57606A">Legend:</text>
<text x="97.9" y="34" font-size="14.5" font-weight="bold" fill="#0969DA">Homework</text>
<text x="205.7" y="34" font-size="14.5" font-weight="bold" fill="#1A7F37">Lab</text>
<text x="255.0" y="34" font-size="14.5" font-weight="bold" fill="#9A6700">Quiz</text>
<text x="311.7" y="34" font-size="14.5" font-weight="bold" fill="#CF222E">Oral Exam</text>
<text x="418.4" y="34" font-size="14.5" font-weight="bold" fill="#8250DF">Project</text>
<rect x="12" y="52" width="835" height="37" fill="#F6F8FA" stroke="#D0D7DE" stroke-width="1"/>
<text x="22.0" y="76" font-size="15.5" font-weight="bold" fill="#1F2328">Date</text>
<text x="83.0" y="76" font-size="15.5" font-weight="bold" fill="#1F2328">Class</text>
<text x="149.3" y="76" font-size="15.5" font-weight="bold" fill="#1F2328">Topic</text>
<text x="549.6" y="76" font-size="15.5" font-weight="bold" fill="#1F2328">Notes</text>
<rect x="12" y="89" width="835" height="33" fill="none" stroke="#D0D7DE" stroke-width="1"/>
<text x="22" y="110" font-size="15" fill="#1F2328">9/1</text>
<text x="83.0" y="110" font-size="15" fill="#57606A">1</text>
<text x="149.3" y="110" font-size="15" fill="#1F2328">Introduction + single-cell primer</text>
<text x="549.6" y="110" font-size="15" font-weight="bold" fill="#0969DA">HW1 released (due 9/17)</text>
<rect x="12" y="122" width="835" height="33" fill="#FBFBFC"/>
<rect x="12" y="122" width="835" height="33" fill="none" stroke="#D0D7DE" stroke-width="1"/>
<text x="22" y="143" font-size="15" fill="#1F2328">9/3</text>
<text x="83.0" y="143" font-size="15" fill="#57606A">2</text>
<text x="149.3" y="143" font-size="15" fill="#1F2328">Linear algebra/probability refresher; prelab</text>
<text x="549.6" y="143" font-size="15" font-weight="bold" fill="#8250DF">Introduce Final Project</text>
<rect x="12" y="155" width="835" height="33" fill="none" stroke="#D0D7DE" stroke-width="1"/>
<text x="22" y="176" font-size="15" fill="#1F2328">9/8</text>
<text x="83.0" y="176" font-size="15" fill="#57606A">3</text>
<text x="149.3" y="176" font-size="15" fill="#1F2328">Linear dimensionality reduction 1: PCA</text>
<rect x="12" y="188" width="835" height="33" fill="#FBFBFC"/>
<rect x="12" y="188" width="835" height="33" fill="none" stroke="#D0D7DE" stroke-width="1"/>
<text x="22" y="209" font-size="15" fill="#1F2328">9/10</text>
<text x="83.0" y="209" font-size="15" fill="#57606A">4</text>
<text x="149.3" y="209" font-size="15" fill="#1F2328">Linear dimensionality reduction 2: NMF</text>
<rect x="12" y="221" width="835" height="53" fill="none" stroke="#D0D7DE" stroke-width="1"/>
<text x="22" y="242" font-size="15" fill="#1F2328">9/15</text>
<text x="83.0" y="242" font-size="15" fill="#57606A">5</text>
<text x="149.3" y="242" font-size="15" fill="#1F2328">Linear dimensionality reduction 3: probabilistic</text>
<text x="149.3" y="262" font-size="15" fill="#1F2328">matrix factorization + in-class lab</text>
<text x="549.6" y="242" font-size="15" font-weight="bold" fill="#1A7F37">Lab 1 in class (Report due 9/21)</text>
<rect x="12" y="274" width="835" height="73" fill="#FBFBFC"/>
<rect x="12" y="274" width="835" height="73" fill="none" stroke="#D0D7DE" stroke-width="1"/>
<text x="22" y="295" font-size="15" fill="#1F2328">9/17</text>
<text x="83.0" y="295" font-size="15" fill="#57606A">6</text>
<text x="149.3" y="295" font-size="15" fill="#1F2328">Deep learning primer + AE</text>
<text x="549.6" y="295" font-size="15" font-weight="bold" fill="#9A6700">Quiz 1</text>
<text x="549.6" y="315" font-size="15" font-weight="bold" fill="#0969DA">HW1 due</text>
<text x="549.6" y="335" font-size="15" font-weight="bold" fill="#0969DA">HW2 released (due 9/29)</text>
<rect x="12" y="347" width="835" height="53" fill="none" stroke="#D0D7DE" stroke-width="1"/>
<text x="22" y="368" font-size="15" fill="#1F2328">9/22</text>
<text x="83.0" y="368" font-size="15" fill="#57606A">7</text>
<text x="149.3" y="368" font-size="15" fill="#1F2328">Deep dimensionality reduction: VAE +</text>
<text x="149.3" y="388" font-size="15" fill="#1F2328">contrastive learning</text>
<rect x="12" y="400" width="835" height="53" fill="#FBFBFC"/>
<rect x="12" y="400" width="835" height="53" fill="none" stroke="#D0D7DE" stroke-width="1"/>
<text x="22" y="421" font-size="15" fill="#1F2328">9/24</text>
<text x="83.0" y="421" font-size="15" fill="#57606A">8</text>
<text x="149.3" y="421" font-size="15" fill="#1F2328">Deep dimensionality reduction: FMs + in-class</text>
<text x="149.3" y="441" font-size="15" fill="#1F2328">lab</text>
<text x="549.6" y="421" font-size="15" font-weight="bold" fill="#1A7F37">Lab 2 in class (Report due 9/28)</text>
<rect x="12" y="453" width="835" height="73" fill="none" stroke="#D0D7DE" stroke-width="1"/>
<text x="22" y="474" font-size="15" fill="#1F2328">9/29</text>
<text x="83.0" y="474" font-size="15" fill="#57606A">9</text>
<text x="149.3" y="474" font-size="15" fill="#1F2328">Manifold learning / graphs 1: definitions +</text>
<text x="149.3" y="494" font-size="15" fill="#1F2328">ISOMAP</text>
<text x="549.6" y="474" font-size="15" font-weight="bold" fill="#9A6700">Quiz 2</text>
<text x="549.6" y="494" font-size="15" font-weight="bold" fill="#0969DA">HW2 due</text>
<text x="549.6" y="514" font-size="15" font-weight="bold" fill="#0969DA">HW3 released (due 10/13)</text>
<rect x="12" y="526" width="835" height="33" fill="#FBFBFC"/>
<rect x="12" y="526" width="835" height="33" fill="none" stroke="#D0D7DE" stroke-width="1"/>
<text x="22" y="547" font-size="15" fill="#1F2328">10/1</text>
<text x="83.0" y="547" font-size="15" fill="#57606A">10</text>
<text x="149.3" y="547" font-size="15" fill="#1F2328">Manifold learning / graphs 2: random walks</text>
<text x="549.6" y="547" font-size="15" font-weight="bold" fill="#8250DF">Project proposal due</text>
<rect x="12" y="559" width="835" height="53" fill="none" stroke="#D0D7DE" stroke-width="1"/>
<text x="22" y="580" font-size="15" fill="#1F2328">10/6</text>
<text x="83.0" y="580" font-size="15" fill="#57606A">11</text>
<text x="149.3" y="580" font-size="15" fill="#1F2328">Manifold learning / graphs 3: t-SNE/UMAP,</text>
<text x="149.3" y="600" font-size="15" fill="#1F2328">Markov chains</text>
<rect x="12" y="612" width="835" height="53" fill="#FBFBFC"/>
<rect x="12" y="612" width="835" height="53" fill="none" stroke="#D0D7DE" stroke-width="1"/>
<text x="22" y="633" font-size="15" fill="#1F2328">10/8</text>
<text x="83.0" y="633" font-size="15" fill="#57606A">12</text>
<text x="149.3" y="633" font-size="15" fill="#1F2328">Manifold learning / graphs 4 (cont.) + in-class</text>
<text x="149.3" y="653" font-size="15" fill="#1F2328">lab</text>
<text x="549.6" y="633" font-size="15" font-weight="bold" fill="#1A7F37">Lab 3 in class (Report due 10/12)</text>
<rect x="12" y="665" width="835" height="73" fill="none" stroke="#D0D7DE" stroke-width="1"/>
<text x="22" y="686" font-size="15" fill="#1F2328">10/13</text>
<text x="83.0" y="686" font-size="15" fill="#57606A">13</text>
<text x="149.3" y="686" font-size="15" fill="#1F2328">Graph clustering</text>
<text x="549.6" y="686" font-size="15" font-weight="bold" fill="#9A6700">Quiz 3</text>
<text x="549.6" y="706" font-size="15" font-weight="bold" fill="#0969DA">HW3 due</text>
<text x="549.6" y="726" font-size="15" font-weight="bold" fill="#0969DA">HW4 released (due 11/3)</text>
<rect x="12" y="738" width="835" height="33" fill="#FBFBFC"/>
<rect x="12" y="738" width="835" height="33" fill="none" stroke="#D0D7DE" stroke-width="1"/>
<text x="22" y="759" font-size="15" fill="#1F2328">10/15</text>
<text x="83.0" y="759" font-size="15" fill="#57606A">14</text>
<text x="149.3" y="759" font-size="15" fill="#1F2328">Guest lecture: Atul Deshpande (SOM)</text>
<rect x="12" y="771" width="835" height="33" fill="none" stroke="#D0D7DE" stroke-width="1"/>
<text x="22" y="792" font-size="15" fill="#1F2328">10/20</text>
<text x="83.0" y="792" font-size="15" fill="#57606A">15</text>
<text x="149.3" y="792" font-size="15" fill="#1F2328">Graph clustering (cont.) + GNNs</text>
<rect x="12" y="804" width="835" height="33" fill="#FBFBFC"/>
<rect x="12" y="804" width="835" height="33" fill="none" stroke="#D0D7DE" stroke-width="1"/>
<text x="22" y="825" font-size="15" fill="#1F2328">10/22</text>
<text x="149.3" y="825" font-size="15" font-weight="bold" fill="#1F2328">NO CLASS: Fall break</text>
<text x="549.6" y="825" font-size="15" font-weight="bold" fill="#CF222E">Oral Exam 1 (date TBD)</text>
<rect x="12" y="837" width="835" height="53" fill="none" stroke="#D0D7DE" stroke-width="1"/>
<text x="22" y="858" font-size="15" fill="#1F2328">10/27</text>
<text x="83.0" y="858" font-size="15" fill="#57606A">16</text>
<text x="149.3" y="858" font-size="15" fill="#1F2328">Spatial SVGs + neural fields (e.g. GASTON) +</text>
<text x="149.3" y="878" font-size="15" fill="#1F2328">point processes (segmentation)</text>
<rect x="12" y="890" width="835" height="33" fill="#FBFBFC"/>
<rect x="12" y="890" width="835" height="33" fill="none" stroke="#D0D7DE" stroke-width="1"/>
<text x="22" y="911" font-size="15" fill="#1F2328">10/29</text>
<text x="83.0" y="911" font-size="15" fill="#57606A">17</text>
<text x="149.3" y="911" font-size="15" fill="#1F2328">Spatial (cont.) + in-class lab</text>
<text x="549.6" y="911" font-size="15" font-weight="bold" fill="#1A7F37">Lab 4 in class (Report due 11/2)</text>
<rect x="12" y="923" width="835" height="73" fill="none" stroke="#D0D7DE" stroke-width="1"/>
<text x="22" y="944" font-size="15" fill="#1F2328">11/3</text>
<text x="83.0" y="944" font-size="15" fill="#57606A">18</text>
<text x="149.3" y="944" font-size="15" fill="#1F2328">Optimal transport I:</text>
<text x="149.3" y="964" font-size="15" fill="#1F2328">Monge/Kantorovich/Wasserstein distance</text>
<text x="549.6" y="944" font-size="15" font-weight="bold" fill="#9A6700">Quiz 4</text>
<text x="549.6" y="964" font-size="15" font-weight="bold" fill="#0969DA">HW4 due</text>
<text x="549.6" y="984" font-size="15" font-weight="bold" fill="#0969DA">HW5 released (due 11/17)</text>
<rect x="12" y="996" width="835" height="33" fill="#FBFBFC"/>
<rect x="12" y="996" width="835" height="33" fill="none" stroke="#D0D7DE" stroke-width="1"/>
<text x="22" y="1017" font-size="15" fill="#1F2328">11/5</text>
<text x="83.0" y="1017" font-size="15" fill="#57606A">19</text>
<text x="149.3" y="1017" font-size="15" fill="#1F2328">Optimal transport II: Sinkhorn</text>
<rect x="12" y="1029" width="835" height="53" fill="none" stroke="#D0D7DE" stroke-width="1"/>
<text x="22" y="1050" font-size="15" fill="#1F2328">11/10</text>
<text x="83.0" y="1050" font-size="15" fill="#57606A">20</text>
<text x="149.3" y="1050" font-size="15" fill="#1F2328">OT 3: Gromov-Wasserstein, Dynamic OT,</text>
<text x="149.3" y="1070" font-size="15" fill="#1F2328">(semi-)balanced/unbalanced, applications</text>
<rect x="12" y="1082" width="835" height="53" fill="#FBFBFC"/>
<rect x="12" y="1082" width="835" height="53" fill="none" stroke="#D0D7DE" stroke-width="1"/>
<text x="22" y="1103" font-size="15" fill="#1F2328">11/12</text>
<text x="83.0" y="1103" font-size="15" fill="#57606A">21</text>
<text x="149.3" y="1103" font-size="15" fill="#1F2328">OT 4 + in-class lab: score/flow/conditional flow</text>
<text x="149.3" y="1123" font-size="15" fill="#1F2328">matching</text>
<text x="549.6" y="1103" font-size="15" font-weight="bold" fill="#1A7F37">Lab 5 in class (Report due 11/16)</text>
<text x="549.6" y="1123" font-size="15" font-weight="bold" fill="#8250DF">Project Preliminary Report due</text>
<rect x="12" y="1135" width="835" height="53" fill="none" stroke="#D0D7DE" stroke-width="1"/>
<text x="22" y="1156" font-size="15" fill="#1F2328">11/17</text>
<text x="83.0" y="1156" font-size="15" fill="#57606A">22</text>
<text x="149.3" y="1156" font-size="15" fill="#1F2328">Guest lecture: Min-zhi Jiang (Biostats)</text>
<text x="549.6" y="1156" font-size="15" font-weight="bold" fill="#9A6700">Quiz 5</text>
<text x="549.6" y="1176" font-size="15" font-weight="bold" fill="#0969DA">HW5 due</text>
<rect x="12" y="1188" width="835" height="53" fill="#FBFBFC"/>
<rect x="12" y="1188" width="835" height="53" fill="none" stroke="#D0D7DE" stroke-width="1"/>
<text x="22" y="1209" font-size="15" fill="#1F2328">11/19</text>
<text x="83.0" y="1209" font-size="15" fill="#57606A">23</text>
<text x="149.3" y="1209" font-size="15" fill="#1F2328">Guest lecture: Vishaka Gopalan (NIH) +</text>
<text x="149.3" y="1229" font-size="15" fill="#1F2328">Shashwat Kumar (BME)</text>
<rect x="12" y="1241" width="835" height="33" fill="none" stroke="#D0D7DE" stroke-width="1"/>
<text x="22" y="1262" font-size="15" fill="#1F2328">11/24</text>
<text x="149.3" y="1262" font-size="15" font-weight="bold" fill="#1F2328">NO CLASS: Thanksgiving break</text>
<rect x="12" y="1274" width="835" height="33" fill="#FBFBFC"/>
<rect x="12" y="1274" width="835" height="33" fill="none" stroke="#D0D7DE" stroke-width="1"/>
<text x="22" y="1295" font-size="15" fill="#1F2328">11/26</text>
<text x="149.3" y="1295" font-size="15" font-weight="bold" fill="#1F2328">NO CLASS: Thanksgiving break</text>
<rect x="12" y="1307" width="835" height="33" fill="none" stroke="#D0D7DE" stroke-width="1"/>
<text x="22" y="1328" font-size="15" fill="#1F2328">12/1</text>
<text x="83.0" y="1328" font-size="15" fill="#57606A">24</text>
<text x="149.3" y="1328" font-size="15" fill="#1F2328">Guest lecture: Yiqun Chen (Biostats/CS)</text>
<rect x="12" y="1340" width="835" height="33" fill="#FBFBFC"/>
<rect x="12" y="1340" width="835" height="33" fill="none" stroke="#D0D7DE" stroke-width="1"/>
<text x="22" y="1361" font-size="15" fill="#1F2328">12/3</text>
<text x="83.0" y="1361" font-size="15" fill="#57606A">25</text>
<text x="149.3" y="1361" font-size="15" font-weight="bold" fill="#1F2328">Project presentations</text>
<rect x="12" y="1373" width="835" height="33" fill="none" stroke="#D0D7DE" stroke-width="1"/>
<text x="22" y="1394" font-size="15" fill="#1F2328">12/8</text>
<text x="83.0" y="1394" font-size="15" fill="#57606A">26</text>
<text x="149.3" y="1394" font-size="15" font-weight="bold" fill="#1F2328">Project presentations</text>
<rect x="12" y="1406" width="835" height="53" fill="#FBFBFC"/>
<rect x="12" y="1406" width="835" height="53" fill="none" stroke="#D0D7DE" stroke-width="1"/>
<text x="22" y="1427" font-size="15" fill="#1F2328">12/10</text>
<text x="83.0" y="1427" font-size="15" fill="#57606A">27</text>
<text x="149.3" y="1427" font-size="15" font-weight="bold" fill="#1F2328">Project presentations</text>
<text x="549.6" y="1427" font-size="15" font-weight="bold" fill="#8250DF">Final report due 12/12</text>
<text x="549.6" y="1447" font-size="15" font-weight="bold" fill="#CF222E">Oral Exam 2 (on final project)</text>
</svg>
